<svg width="46" height="26" viewBox="0 0 46 26" fill="none" xmlns="http://www.w3.org/2000/svg">
<rect width="46" height="26" rx="4" fill="#F2F2F2"/>
<g clip-path="url(#clip0_4224_1078)">
<path d="M20.528 18.8268H17.5244L19.4031 7.21045H22.4065L20.528 18.8268Z" fill="#00579F"/>
<path d="M31.4168 7.49455C30.8243 7.25951 29.8846 7 28.7228 7C25.7566 7 23.6678 8.58171 23.655 10.8431C23.6304 12.5115 25.1505 13.4382 26.2874 13.9945C27.4495 14.563 27.8445 14.934 27.8445 15.4407C27.8327 16.2189 26.9055 16.5777 26.0407 16.5777C24.8416 16.5777 24.199 16.3927 23.2226 15.9598L22.8271 15.7742L22.4067 18.3818C23.1112 18.7027 24.4091 18.9875 25.7566 19C28.9082 19 30.96 17.4428 30.9843 15.0329C30.9963 13.7105 30.1936 12.6973 28.4631 11.8693C27.4125 11.3378 26.7692 10.9794 26.7692 10.4356C26.7815 9.9412 27.3133 9.43482 28.4992 9.43482C29.4757 9.41002 30.1931 9.64473 30.7366 9.87961L31.0083 10.003L31.4168 7.49455Z" fill="#00579F"/>
<path d="M35.4088 14.7115C35.6562 14.0442 36.608 11.4614 36.608 11.4614C36.5955 11.4862 36.8548 10.7817 37.0032 10.3492L37.2131 11.3502C37.2131 11.3502 37.7819 14.1307 37.9054 14.7115C37.436 14.7115 36.0021 14.7115 35.4088 14.7115ZM39.1164 7.21045H36.7931C36.0766 7.21045 35.5323 7.42036 35.2232 8.17426L30.7617 18.8266H33.9133C33.9133 18.8266 34.4322 17.3929 34.5437 17.0841C34.8895 17.0841 37.9553 17.0841 38.4001 17.0841C38.4863 17.4919 38.7585 18.8266 38.7585 18.8266H41.5395L39.1164 7.21045Z" fill="#00579F"/>
<path d="M15.0158 7.21045L12.0742 15.1317L11.7528 13.5252C11.209 11.6714 9.50341 9.65743 7.6001 8.656L10.2944 18.8144H13.4707L18.1918 7.21045H15.0158Z" fill="#00579F"/>
<path d="M9.3429 7.21045H4.51038L4.46094 7.44516C8.23061 8.40914 10.7272 10.7328 11.7529 13.5256L10.7024 8.18691C10.5294 7.445 9.99792 7.23492 9.3429 7.21045Z" fill="#FAA61A"/>
</g>
<defs>
<clipPath id="clip0_4224_1078">
<rect width="37.0784" height="12" fill="white" transform="translate(4.46094 7)"/>
</clipPath>
</defs>
</svg>
